<mxfile host="Electron" modified="2023-06-24T15:26:46.895Z" agent="Mozilla/5.0 (Windows NT 10.0; Win64; x64) AppleWebKit/537.36 (KHTML, like Gecko) draw.io/21.5.0 Chrome/112.0.5615.204 Electron/24.5.1 Safari/537.36" etag="NuLFCrK5VRfNd5NwfSMw" version="21.5.0" type="device">
  <diagram name="Page-1" id="BZCtsfkW4jmxBtcs_z8Y">
    <mxGraphModel dx="1434" dy="844" grid="1" gridSize="10" guides="1" tooltips="1" connect="1" arrows="1" fold="1" page="1" pageScale="1" pageWidth="850" pageHeight="1100" math="0" shadow="0">
      <root>
        <mxCell id="0" />
        <mxCell id="1" parent="0" />
        <mxCell id="8yiLwe5WrIj6T4rAeRKy-1" value="&lt;b&gt;Education&lt;/b&gt;" style="swimlane;fontStyle=0;childLayout=stackLayout;horizontal=1;startSize=26;fillColor=none;horizontalStack=0;resizeParent=1;resizeParentMax=0;resizeLast=0;collapsible=1;marginBottom=0;whiteSpace=wrap;html=1;" parent="1" vertex="1">
          <mxGeometry x="870" y="40" width="235" height="260" as="geometry" />
        </mxCell>
        <mxCell id="8yiLwe5WrIj6T4rAeRKy-58" value="education_id&amp;nbsp; &amp;nbsp; &amp;nbsp;SERIAL&amp;nbsp; &amp;nbsp; &amp;nbsp;PK" style="text;strokeColor=none;fillColor=none;align=left;verticalAlign=top;spacingLeft=4;spacingRight=4;overflow=hidden;rotatable=0;points=[[0,0.5],[1,0.5]];portConstraint=eastwest;whiteSpace=wrap;html=1;" parent="8yiLwe5WrIj6T4rAeRKy-1" vertex="1">
          <mxGeometry y="26" width="235" height="26" as="geometry" />
        </mxCell>
        <mxCell id="8yiLwe5WrIj6T4rAeRKy-2" value="instition_name&amp;nbsp; &amp;nbsp; &amp;nbsp;VARCHAR(50)" style="text;strokeColor=none;fillColor=none;align=left;verticalAlign=top;spacingLeft=4;spacingRight=4;overflow=hidden;rotatable=0;points=[[0,0.5],[1,0.5]];portConstraint=eastwest;whiteSpace=wrap;html=1;" parent="8yiLwe5WrIj6T4rAeRKy-1" vertex="1">
          <mxGeometry y="52" width="235" height="26" as="geometry" />
        </mxCell>
        <mxCell id="8yiLwe5WrIj6T4rAeRKy-4" value="Country&amp;nbsp; &amp;nbsp; &amp;nbsp;VARCHAR(50)" style="text;strokeColor=none;fillColor=none;align=left;verticalAlign=top;spacingLeft=4;spacingRight=4;overflow=hidden;rotatable=0;points=[[0,0.5],[1,0.5]];portConstraint=eastwest;whiteSpace=wrap;html=1;" parent="8yiLwe5WrIj6T4rAeRKy-1" vertex="1">
          <mxGeometry y="78" width="235" height="26" as="geometry" />
        </mxCell>
        <mxCell id="8yiLwe5WrIj6T4rAeRKy-5" value="degree&amp;nbsp; &amp;nbsp; &amp;nbsp;VARCHAR(50)" style="text;strokeColor=none;fillColor=none;align=left;verticalAlign=top;spacingLeft=4;spacingRight=4;overflow=hidden;rotatable=0;points=[[0,0.5],[1,0.5]];portConstraint=eastwest;whiteSpace=wrap;html=1;" parent="8yiLwe5WrIj6T4rAeRKy-1" vertex="1">
          <mxGeometry y="104" width="235" height="26" as="geometry" />
        </mxCell>
        <mxCell id="8yiLwe5WrIj6T4rAeRKy-6" value="field_of_study&amp;nbsp; &amp;nbsp; &amp;nbsp;VARCHAR(50)" style="text;strokeColor=none;fillColor=none;align=left;verticalAlign=top;spacingLeft=4;spacingRight=4;overflow=hidden;rotatable=0;points=[[0,0.5],[1,0.5]];portConstraint=eastwest;whiteSpace=wrap;html=1;" parent="8yiLwe5WrIj6T4rAeRKy-1" vertex="1">
          <mxGeometry y="130" width="235" height="26" as="geometry" />
        </mxCell>
        <mxCell id="8yiLwe5WrIj6T4rAeRKy-7" value="start_date&amp;nbsp; &amp;nbsp; &amp;nbsp;DATE" style="text;strokeColor=none;fillColor=none;align=left;verticalAlign=top;spacingLeft=4;spacingRight=4;overflow=hidden;rotatable=0;points=[[0,0.5],[1,0.5]];portConstraint=eastwest;whiteSpace=wrap;html=1;" parent="8yiLwe5WrIj6T4rAeRKy-1" vertex="1">
          <mxGeometry y="156" width="235" height="26" as="geometry" />
        </mxCell>
        <mxCell id="8yiLwe5WrIj6T4rAeRKy-8" value="end_date&amp;nbsp; &amp;nbsp; &amp;nbsp;DATE" style="text;strokeColor=none;fillColor=none;align=left;verticalAlign=top;spacingLeft=4;spacingRight=4;overflow=hidden;rotatable=0;points=[[0,0.5],[1,0.5]];portConstraint=eastwest;whiteSpace=wrap;html=1;" parent="8yiLwe5WrIj6T4rAeRKy-1" vertex="1">
          <mxGeometry y="182" width="235" height="26" as="geometry" />
        </mxCell>
        <mxCell id="8yiLwe5WrIj6T4rAeRKy-9" value="grade&amp;nbsp; &amp;nbsp; &amp;nbsp;INTEGER" style="text;strokeColor=none;fillColor=none;align=left;verticalAlign=top;spacingLeft=4;spacingRight=4;overflow=hidden;rotatable=0;points=[[0,0.5],[1,0.5]];portConstraint=eastwest;whiteSpace=wrap;html=1;" parent="8yiLwe5WrIj6T4rAeRKy-1" vertex="1">
          <mxGeometry y="208" width="235" height="26" as="geometry" />
        </mxCell>
        <mxCell id="8yiLwe5WrIj6T4rAeRKy-10" value="discription&amp;nbsp; &amp;nbsp; &amp;nbsp;TEXT" style="text;strokeColor=none;fillColor=none;align=left;verticalAlign=top;spacingLeft=4;spacingRight=4;overflow=hidden;rotatable=0;points=[[0,0.5],[1,0.5]];portConstraint=eastwest;whiteSpace=wrap;html=1;" parent="8yiLwe5WrIj6T4rAeRKy-1" vertex="1">
          <mxGeometry y="234" width="235" height="26" as="geometry" />
        </mxCell>
        <mxCell id="8yiLwe5WrIj6T4rAeRKy-11" value="&lt;b&gt;Certification&lt;/b&gt;" style="swimlane;fontStyle=0;childLayout=stackLayout;horizontal=1;startSize=26;fillColor=none;horizontalStack=0;resizeParent=1;resizeParentMax=0;resizeLast=0;collapsible=1;marginBottom=0;whiteSpace=wrap;html=1;" parent="1" vertex="1">
          <mxGeometry x="130" y="180" width="240" height="156" as="geometry" />
        </mxCell>
        <mxCell id="8yiLwe5WrIj6T4rAeRKy-48" value="certification_id&amp;nbsp; &amp;nbsp; &amp;nbsp;SERIAL&amp;nbsp; &amp;nbsp; &amp;nbsp;PK" style="text;strokeColor=none;fillColor=none;align=left;verticalAlign=top;spacingLeft=4;spacingRight=4;overflow=hidden;rotatable=0;points=[[0,0.5],[1,0.5]];portConstraint=eastwest;whiteSpace=wrap;html=1;" parent="8yiLwe5WrIj6T4rAeRKy-11" vertex="1">
          <mxGeometry y="26" width="240" height="26" as="geometry" />
        </mxCell>
        <mxCell id="8yiLwe5WrIj6T4rAeRKy-12" value="certification_name&amp;nbsp; &amp;nbsp; &amp;nbsp;VARCHAR(100)" style="text;strokeColor=none;fillColor=none;align=left;verticalAlign=top;spacingLeft=4;spacingRight=4;overflow=hidden;rotatable=0;points=[[0,0.5],[1,0.5]];portConstraint=eastwest;whiteSpace=wrap;html=1;" parent="8yiLwe5WrIj6T4rAeRKy-11" vertex="1">
          <mxGeometry y="52" width="240" height="26" as="geometry" />
        </mxCell>
        <mxCell id="8yiLwe5WrIj6T4rAeRKy-13" value="field_of_study&amp;nbsp; &amp;nbsp; &amp;nbsp;VARCHAR(50)" style="text;strokeColor=none;fillColor=none;align=left;verticalAlign=top;spacingLeft=4;spacingRight=4;overflow=hidden;rotatable=0;points=[[0,0.5],[1,0.5]];portConstraint=eastwest;whiteSpace=wrap;html=1;" parent="8yiLwe5WrIj6T4rAeRKy-11" vertex="1">
          <mxGeometry y="78" width="240" height="26" as="geometry" />
        </mxCell>
        <mxCell id="8yiLwe5WrIj6T4rAeRKy-15" value="start_date&amp;nbsp; &amp;nbsp; &amp;nbsp;DATE" style="text;strokeColor=none;fillColor=none;align=left;verticalAlign=top;spacingLeft=4;spacingRight=4;overflow=hidden;rotatable=0;points=[[0,0.5],[1,0.5]];portConstraint=eastwest;whiteSpace=wrap;html=1;" parent="8yiLwe5WrIj6T4rAeRKy-11" vertex="1">
          <mxGeometry y="104" width="240" height="26" as="geometry" />
        </mxCell>
        <mxCell id="8yiLwe5WrIj6T4rAeRKy-49" value="end_date&amp;nbsp; &amp;nbsp; &amp;nbsp;DATE" style="text;strokeColor=none;fillColor=none;align=left;verticalAlign=top;spacingLeft=4;spacingRight=4;overflow=hidden;rotatable=0;points=[[0,0.5],[1,0.5]];portConstraint=eastwest;whiteSpace=wrap;html=1;" parent="8yiLwe5WrIj6T4rAeRKy-11" vertex="1">
          <mxGeometry y="130" width="240" height="26" as="geometry" />
        </mxCell>
        <mxCell id="8yiLwe5WrIj6T4rAeRKy-18" value="&lt;b&gt;Account&lt;/b&gt;" style="swimlane;fontStyle=0;childLayout=stackLayout;horizontal=1;startSize=26;fillColor=none;horizontalStack=0;resizeParent=1;resizeParentMax=0;resizeLast=0;collapsible=1;marginBottom=0;whiteSpace=wrap;html=1;" parent="1" vertex="1">
          <mxGeometry x="880" y="460" width="245" height="260" as="geometry" />
        </mxCell>
        <mxCell id="8yiLwe5WrIj6T4rAeRKy-51" value="account_id&amp;nbsp; &amp;nbsp; &amp;nbsp;SERIAL&amp;nbsp; &amp;nbsp; &amp;nbsp;PK" style="text;strokeColor=none;fillColor=none;align=left;verticalAlign=top;spacingLeft=4;spacingRight=4;overflow=hidden;rotatable=0;points=[[0,0.5],[1,0.5]];portConstraint=eastwest;whiteSpace=wrap;html=1;" parent="8yiLwe5WrIj6T4rAeRKy-18" vertex="1">
          <mxGeometry y="26" width="245" height="26" as="geometry" />
        </mxCell>
        <mxCell id="8yiLwe5WrIj6T4rAeRKy-20" value="username&amp;nbsp; &amp;nbsp; &amp;nbsp;VARCHAR(50)" style="text;strokeColor=none;fillColor=none;align=left;verticalAlign=top;spacingLeft=4;spacingRight=4;overflow=hidden;rotatable=0;points=[[0,0.5],[1,0.5]];portConstraint=eastwest;whiteSpace=wrap;html=1;" parent="8yiLwe5WrIj6T4rAeRKy-18" vertex="1">
          <mxGeometry y="52" width="245" height="26" as="geometry" />
        </mxCell>
        <mxCell id="8yiLwe5WrIj6T4rAeRKy-21" value="about&amp;nbsp; &amp;nbsp; &amp;nbsp;TEXT" style="text;strokeColor=none;fillColor=none;align=left;verticalAlign=top;spacingLeft=4;spacingRight=4;overflow=hidden;rotatable=0;points=[[0,0.5],[1,0.5]];portConstraint=eastwest;whiteSpace=wrap;html=1;" parent="8yiLwe5WrIj6T4rAeRKy-18" vertex="1">
          <mxGeometry y="78" width="245" height="26" as="geometry" />
        </mxCell>
        <mxCell id="8yiLwe5WrIj6T4rAeRKy-22" value="first_name&amp;nbsp; &amp;nbsp; &amp;nbsp;VARCHAR(50)" style="text;strokeColor=none;fillColor=none;align=left;verticalAlign=top;spacingLeft=4;spacingRight=4;overflow=hidden;rotatable=0;points=[[0,0.5],[1,0.5]];portConstraint=eastwest;whiteSpace=wrap;html=1;" parent="8yiLwe5WrIj6T4rAeRKy-18" vertex="1">
          <mxGeometry y="104" width="245" height="26" as="geometry" />
        </mxCell>
        <mxCell id="8yiLwe5WrIj6T4rAeRKy-23" value="last_name&amp;nbsp; &amp;nbsp; &amp;nbsp;VARCHAR(50)" style="text;strokeColor=none;fillColor=none;align=left;verticalAlign=top;spacingLeft=4;spacingRight=4;overflow=hidden;rotatable=0;points=[[0,0.5],[1,0.5]];portConstraint=eastwest;whiteSpace=wrap;html=1;" parent="8yiLwe5WrIj6T4rAeRKy-18" vertex="1">
          <mxGeometry y="130" width="245" height="26" as="geometry" />
        </mxCell>
        <mxCell id="8yiLwe5WrIj6T4rAeRKy-24" value="date_of_birth&amp;nbsp; &amp;nbsp; &amp;nbsp;DATE" style="text;strokeColor=none;fillColor=none;align=left;verticalAlign=top;spacingLeft=4;spacingRight=4;overflow=hidden;rotatable=0;points=[[0,0.5],[1,0.5]];portConstraint=eastwest;whiteSpace=wrap;html=1;" parent="8yiLwe5WrIj6T4rAeRKy-18" vertex="1">
          <mxGeometry y="156" width="245" height="26" as="geometry" />
        </mxCell>
        <mxCell id="8yiLwe5WrIj6T4rAeRKy-25" value="gender&amp;nbsp; &amp;nbsp; &amp;nbsp;VARCHAR(9)" style="text;strokeColor=none;fillColor=none;align=left;verticalAlign=top;spacingLeft=4;spacingRight=4;overflow=hidden;rotatable=0;points=[[0,0.5],[1,0.5]];portConstraint=eastwest;whiteSpace=wrap;html=1;" parent="8yiLwe5WrIj6T4rAeRKy-18" vertex="1">
          <mxGeometry y="182" width="245" height="26" as="geometry" />
        </mxCell>
        <mxCell id="8yiLwe5WrIj6T4rAeRKy-26" value="contact&amp;nbsp; &amp;nbsp; &amp;nbsp;INTEGER" style="text;strokeColor=none;fillColor=none;align=left;verticalAlign=top;spacingLeft=4;spacingRight=4;overflow=hidden;rotatable=0;points=[[0,0.5],[1,0.5]];portConstraint=eastwest;whiteSpace=wrap;html=1;" parent="8yiLwe5WrIj6T4rAeRKy-18" vertex="1">
          <mxGeometry y="208" width="245" height="26" as="geometry" />
        </mxCell>
        <mxCell id="8yiLwe5WrIj6T4rAeRKy-27" value="email&amp;nbsp; &amp;nbsp; &amp;nbsp;VARCHAR(150)" style="text;strokeColor=none;fillColor=none;align=left;verticalAlign=top;spacingLeft=4;spacingRight=4;overflow=hidden;rotatable=0;points=[[0,0.5],[1,0.5]];portConstraint=eastwest;whiteSpace=wrap;html=1;" parent="8yiLwe5WrIj6T4rAeRKy-18" vertex="1">
          <mxGeometry y="234" width="245" height="26" as="geometry" />
        </mxCell>
        <mxCell id="8yiLwe5WrIj6T4rAeRKy-28" value="&lt;b&gt;Experience&lt;/b&gt;" style="swimlane;fontStyle=0;childLayout=stackLayout;horizontal=1;startSize=26;fillColor=none;horizontalStack=0;resizeParent=1;resizeParentMax=0;resizeLast=0;collapsible=1;marginBottom=0;whiteSpace=wrap;html=1;" parent="1" vertex="1">
          <mxGeometry x="525" y="680" width="240" height="260" as="geometry" />
        </mxCell>
        <mxCell id="8yiLwe5WrIj6T4rAeRKy-56" value="experience_id&amp;nbsp; &amp;nbsp; &amp;nbsp;SERIAL&amp;nbsp; &amp;nbsp; &amp;nbsp;PK" style="text;strokeColor=none;fillColor=none;align=left;verticalAlign=top;spacingLeft=4;spacingRight=4;overflow=hidden;rotatable=0;points=[[0,0.5],[1,0.5]];portConstraint=eastwest;whiteSpace=wrap;html=1;" parent="8yiLwe5WrIj6T4rAeRKy-28" vertex="1">
          <mxGeometry y="26" width="240" height="26" as="geometry" />
        </mxCell>
        <mxCell id="8aSWK47TGKmx1DZMe7_y-3" value="account_id&amp;nbsp; &amp;nbsp; &amp;nbsp;INTEGER&amp;nbsp; &amp;nbsp; &amp;nbsp;FK" style="text;strokeColor=none;fillColor=none;align=left;verticalAlign=top;spacingLeft=4;spacingRight=4;overflow=hidden;rotatable=0;points=[[0,0.5],[1,0.5]];portConstraint=eastwest;whiteSpace=wrap;html=1;" vertex="1" parent="8yiLwe5WrIj6T4rAeRKy-28">
          <mxGeometry y="52" width="240" height="26" as="geometry" />
        </mxCell>
        <mxCell id="8yiLwe5WrIj6T4rAeRKy-29" value="position&amp;nbsp; &amp;nbsp; &amp;nbsp;VARCHAR(50)" style="text;strokeColor=none;fillColor=none;align=left;verticalAlign=top;spacingLeft=4;spacingRight=4;overflow=hidden;rotatable=0;points=[[0,0.5],[1,0.5]];portConstraint=eastwest;whiteSpace=wrap;html=1;" parent="8yiLwe5WrIj6T4rAeRKy-28" vertex="1">
          <mxGeometry y="78" width="240" height="26" as="geometry" />
        </mxCell>
        <mxCell id="8yiLwe5WrIj6T4rAeRKy-30" value="employment_type&amp;nbsp; &amp;nbsp; &amp;nbsp;VARCHAR(50)" style="text;strokeColor=none;fillColor=none;align=left;verticalAlign=top;spacingLeft=4;spacingRight=4;overflow=hidden;rotatable=0;points=[[0,0.5],[1,0.5]];portConstraint=eastwest;whiteSpace=wrap;html=1;" parent="8yiLwe5WrIj6T4rAeRKy-28" vertex="1">
          <mxGeometry y="104" width="240" height="26" as="geometry" />
        </mxCell>
        <mxCell id="8yiLwe5WrIj6T4rAeRKy-31" value="company_name&amp;nbsp; &amp;nbsp; &amp;nbsp;VARCHAR(100)" style="text;strokeColor=none;fillColor=none;align=left;verticalAlign=top;spacingLeft=4;spacingRight=4;overflow=hidden;rotatable=0;points=[[0,0.5],[1,0.5]];portConstraint=eastwest;whiteSpace=wrap;html=1;" parent="8yiLwe5WrIj6T4rAeRKy-28" vertex="1">
          <mxGeometry y="130" width="240" height="26" as="geometry" />
        </mxCell>
        <mxCell id="8yiLwe5WrIj6T4rAeRKy-32" value="location&amp;nbsp; &amp;nbsp; &amp;nbsp;VARCHAR(50)" style="text;strokeColor=none;fillColor=none;align=left;verticalAlign=top;spacingLeft=4;spacingRight=4;overflow=hidden;rotatable=0;points=[[0,0.5],[1,0.5]];portConstraint=eastwest;whiteSpace=wrap;html=1;" parent="8yiLwe5WrIj6T4rAeRKy-28" vertex="1">
          <mxGeometry y="156" width="240" height="26" as="geometry" />
        </mxCell>
        <mxCell id="8yiLwe5WrIj6T4rAeRKy-33" value="start_date&amp;nbsp; &amp;nbsp; &amp;nbsp;DATE" style="text;strokeColor=none;fillColor=none;align=left;verticalAlign=top;spacingLeft=4;spacingRight=4;overflow=hidden;rotatable=0;points=[[0,0.5],[1,0.5]];portConstraint=eastwest;whiteSpace=wrap;html=1;" parent="8yiLwe5WrIj6T4rAeRKy-28" vertex="1">
          <mxGeometry y="182" width="240" height="26" as="geometry" />
        </mxCell>
        <mxCell id="8yiLwe5WrIj6T4rAeRKy-34" value="end_date&amp;nbsp; &amp;nbsp; &amp;nbsp;DATE" style="text;strokeColor=none;fillColor=none;align=left;verticalAlign=top;spacingLeft=4;spacingRight=4;overflow=hidden;rotatable=0;points=[[0,0.5],[1,0.5]];portConstraint=eastwest;whiteSpace=wrap;html=1;" parent="8yiLwe5WrIj6T4rAeRKy-28" vertex="1">
          <mxGeometry y="208" width="240" height="26" as="geometry" />
        </mxCell>
        <mxCell id="8yiLwe5WrIj6T4rAeRKy-35" value="description&amp;nbsp; &amp;nbsp; &amp;nbsp;TEXT" style="text;strokeColor=none;fillColor=none;align=left;verticalAlign=top;spacingLeft=4;spacingRight=4;overflow=hidden;rotatable=0;points=[[0,0.5],[1,0.5]];portConstraint=eastwest;whiteSpace=wrap;html=1;" parent="8yiLwe5WrIj6T4rAeRKy-28" vertex="1">
          <mxGeometry y="234" width="240" height="26" as="geometry" />
        </mxCell>
        <mxCell id="8yiLwe5WrIj6T4rAeRKy-37" value="&lt;b&gt;Skill&lt;/b&gt;" style="swimlane;fontStyle=0;childLayout=stackLayout;horizontal=1;startSize=26;fillColor=none;horizontalStack=0;resizeParent=1;resizeParentMax=0;resizeLast=0;collapsible=1;marginBottom=0;whiteSpace=wrap;html=1;" parent="1" vertex="1">
          <mxGeometry x="520" y="350" width="240" height="104" as="geometry" />
        </mxCell>
        <mxCell id="8yiLwe5WrIj6T4rAeRKy-42" value="skill_id&amp;nbsp; &amp;nbsp; &amp;nbsp;SERIAL&amp;nbsp; &amp;nbsp; &amp;nbsp;PK" style="text;strokeColor=none;fillColor=none;align=left;verticalAlign=top;spacingLeft=4;spacingRight=4;overflow=hidden;rotatable=0;points=[[0,0.5],[1,0.5]];portConstraint=eastwest;whiteSpace=wrap;html=1;" parent="8yiLwe5WrIj6T4rAeRKy-37" vertex="1">
          <mxGeometry y="26" width="240" height="26" as="geometry" />
        </mxCell>
        <mxCell id="8yiLwe5WrIj6T4rAeRKy-38" value="skill_name&amp;nbsp; &amp;nbsp; &amp;nbsp;VARCHAR(50)" style="text;strokeColor=none;fillColor=none;align=left;verticalAlign=top;spacingLeft=4;spacingRight=4;overflow=hidden;rotatable=0;points=[[0,0.5],[1,0.5]];portConstraint=eastwest;whiteSpace=wrap;html=1;" parent="8yiLwe5WrIj6T4rAeRKy-37" vertex="1">
          <mxGeometry y="52" width="240" height="26" as="geometry" />
        </mxCell>
        <mxCell id="8yiLwe5WrIj6T4rAeRKy-39" value="skill_level&amp;nbsp; &amp;nbsp; &amp;nbsp;VARCHAR(50)" style="text;strokeColor=none;fillColor=none;align=left;verticalAlign=top;spacingLeft=4;spacingRight=4;overflow=hidden;rotatable=0;points=[[0,0.5],[1,0.5]];portConstraint=eastwest;whiteSpace=wrap;html=1;" parent="8yiLwe5WrIj6T4rAeRKy-37" vertex="1">
          <mxGeometry y="78" width="240" height="26" as="geometry" />
        </mxCell>
        <mxCell id="8aSWK47TGKmx1DZMe7_y-5" value="skill experience" style="swimlane;fontStyle=0;childLayout=stackLayout;horizontal=1;startSize=26;fillColor=none;horizontalStack=0;resizeParent=1;resizeParentMax=0;resizeLast=0;collapsible=1;marginBottom=0;whiteSpace=wrap;html=1;" vertex="1" parent="1">
          <mxGeometry x="520" y="560" width="240" height="78" as="geometry" />
        </mxCell>
        <mxCell id="8aSWK47TGKmx1DZMe7_y-6" value="skill_id&amp;nbsp; &amp;nbsp; &amp;nbsp;INTEGER&amp;nbsp; &amp;nbsp; &amp;nbsp;PKFK" style="text;strokeColor=none;fillColor=none;align=left;verticalAlign=top;spacingLeft=4;spacingRight=4;overflow=hidden;rotatable=0;points=[[0,0.5],[1,0.5]];portConstraint=eastwest;whiteSpace=wrap;html=1;" vertex="1" parent="8aSWK47TGKmx1DZMe7_y-5">
          <mxGeometry y="26" width="240" height="26" as="geometry" />
        </mxCell>
        <mxCell id="8aSWK47TGKmx1DZMe7_y-7" value="experience_id&amp;nbsp; &amp;nbsp; &amp;nbsp;INTEGER&amp;nbsp; &amp;nbsp; &amp;nbsp;PKFK" style="text;strokeColor=none;fillColor=none;align=left;verticalAlign=top;spacingLeft=4;spacingRight=4;overflow=hidden;rotatable=0;points=[[0,0.5],[1,0.5]];portConstraint=eastwest;whiteSpace=wrap;html=1;" vertex="1" parent="8aSWK47TGKmx1DZMe7_y-5">
          <mxGeometry y="52" width="240" height="26" as="geometry" />
        </mxCell>
        <mxCell id="8aSWK47TGKmx1DZMe7_y-9" style="edgeStyle=orthogonalEdgeStyle;rounded=0;orthogonalLoop=1;jettySize=auto;html=1;exitX=1;exitY=0.5;exitDx=0;exitDy=0;entryX=1.004;entryY=0.269;entryDx=0;entryDy=0;entryPerimeter=0;" edge="1" parent="1" source="8yiLwe5WrIj6T4rAeRKy-56" target="8aSWK47TGKmx1DZMe7_y-7">
          <mxGeometry relative="1" as="geometry" />
        </mxCell>
        <mxCell id="8aSWK47TGKmx1DZMe7_y-10" style="edgeStyle=orthogonalEdgeStyle;rounded=0;orthogonalLoop=1;jettySize=auto;html=1;exitX=1;exitY=0.5;exitDx=0;exitDy=0;entryX=1;entryY=0.5;entryDx=0;entryDy=0;" edge="1" parent="1" source="8yiLwe5WrIj6T4rAeRKy-42" target="8aSWK47TGKmx1DZMe7_y-6">
          <mxGeometry relative="1" as="geometry" />
        </mxCell>
        <mxCell id="8aSWK47TGKmx1DZMe7_y-13" style="edgeStyle=orthogonalEdgeStyle;rounded=0;orthogonalLoop=1;jettySize=auto;html=1;exitX=1;exitY=0.5;exitDx=0;exitDy=0;entryX=0;entryY=0.5;entryDx=0;entryDy=0;" edge="1" parent="1" source="8aSWK47TGKmx1DZMe7_y-3" target="8yiLwe5WrIj6T4rAeRKy-51">
          <mxGeometry relative="1" as="geometry" />
        </mxCell>
        <mxCell id="8aSWK47TGKmx1DZMe7_y-15" value="skill_certification" style="swimlane;fontStyle=0;childLayout=stackLayout;horizontal=1;startSize=26;fillColor=none;horizontalStack=0;resizeParent=1;resizeParentMax=0;resizeLast=0;collapsible=1;marginBottom=0;whiteSpace=wrap;html=1;" vertex="1" parent="1">
          <mxGeometry x="130" y="422" width="240" height="78" as="geometry" />
        </mxCell>
        <mxCell id="8aSWK47TGKmx1DZMe7_y-19" value="skill_id&amp;nbsp; &amp;nbsp; &amp;nbsp;INTEGER&amp;nbsp; &amp;nbsp; &amp;nbsp;PKFK" style="text;strokeColor=none;fillColor=none;align=left;verticalAlign=top;spacingLeft=4;spacingRight=4;overflow=hidden;rotatable=0;points=[[0,0.5],[1,0.5]];portConstraint=eastwest;whiteSpace=wrap;html=1;" vertex="1" parent="8aSWK47TGKmx1DZMe7_y-15">
          <mxGeometry y="26" width="240" height="26" as="geometry" />
        </mxCell>
        <mxCell id="8aSWK47TGKmx1DZMe7_y-20" value="certification_id&amp;nbsp; &amp;nbsp; &amp;nbsp;INETEGER&amp;nbsp; &amp;nbsp; &amp;nbsp;PKFK" style="text;strokeColor=none;fillColor=none;align=left;verticalAlign=top;spacingLeft=4;spacingRight=4;overflow=hidden;rotatable=0;points=[[0,0.5],[1,0.5]];portConstraint=eastwest;whiteSpace=wrap;html=1;" vertex="1" parent="8aSWK47TGKmx1DZMe7_y-15">
          <mxGeometry y="52" width="240" height="26" as="geometry" />
        </mxCell>
        <mxCell id="8aSWK47TGKmx1DZMe7_y-21" style="edgeStyle=orthogonalEdgeStyle;rounded=0;orthogonalLoop=1;jettySize=auto;html=1;exitX=0;exitY=0.5;exitDx=0;exitDy=0;entryX=0;entryY=0.5;entryDx=0;entryDy=0;" edge="1" parent="1" source="8yiLwe5WrIj6T4rAeRKy-48" target="8aSWK47TGKmx1DZMe7_y-20">
          <mxGeometry relative="1" as="geometry" />
        </mxCell>
        <mxCell id="8aSWK47TGKmx1DZMe7_y-22" style="edgeStyle=orthogonalEdgeStyle;rounded=0;orthogonalLoop=1;jettySize=auto;html=1;exitX=1;exitY=0.5;exitDx=0;exitDy=0;entryX=0;entryY=0.5;entryDx=0;entryDy=0;" edge="1" parent="1" source="8aSWK47TGKmx1DZMe7_y-19" target="8yiLwe5WrIj6T4rAeRKy-42">
          <mxGeometry relative="1" as="geometry" />
        </mxCell>
        <mxCell id="8aSWK47TGKmx1DZMe7_y-23" value="skill_education" style="swimlane;fontStyle=0;childLayout=stackLayout;horizontal=1;startSize=26;fillColor=none;horizontalStack=0;resizeParent=1;resizeParentMax=0;resizeLast=0;collapsible=1;marginBottom=0;whiteSpace=wrap;html=1;" vertex="1" parent="1">
          <mxGeometry x="525" y="130" width="225" height="78" as="geometry" />
        </mxCell>
        <mxCell id="8aSWK47TGKmx1DZMe7_y-27" value="skill_id&amp;nbsp; &amp;nbsp; &amp;nbsp;INTEGER&amp;nbsp; &amp;nbsp; &amp;nbsp;PKFK" style="text;strokeColor=none;fillColor=none;align=left;verticalAlign=top;spacingLeft=4;spacingRight=4;overflow=hidden;rotatable=0;points=[[0,0.5],[1,0.5]];portConstraint=eastwest;whiteSpace=wrap;html=1;" vertex="1" parent="8aSWK47TGKmx1DZMe7_y-23">
          <mxGeometry y="26" width="225" height="26" as="geometry" />
        </mxCell>
        <mxCell id="8aSWK47TGKmx1DZMe7_y-28" value="education_id&amp;nbsp; &amp;nbsp; &amp;nbsp;INTEGER&amp;nbsp; &amp;nbsp; &amp;nbsp;PKFK" style="text;strokeColor=none;fillColor=none;align=left;verticalAlign=top;spacingLeft=4;spacingRight=4;overflow=hidden;rotatable=0;points=[[0,0.5],[1,0.5]];portConstraint=eastwest;whiteSpace=wrap;html=1;" vertex="1" parent="8aSWK47TGKmx1DZMe7_y-23">
          <mxGeometry y="52" width="225" height="26" as="geometry" />
        </mxCell>
        <mxCell id="8aSWK47TGKmx1DZMe7_y-29" style="edgeStyle=orthogonalEdgeStyle;rounded=0;orthogonalLoop=1;jettySize=auto;html=1;exitX=1;exitY=0.5;exitDx=0;exitDy=0;entryX=0;entryY=0.5;entryDx=0;entryDy=0;" edge="1" parent="1" source="8aSWK47TGKmx1DZMe7_y-28" target="8yiLwe5WrIj6T4rAeRKy-58">
          <mxGeometry relative="1" as="geometry" />
        </mxCell>
        <mxCell id="8aSWK47TGKmx1DZMe7_y-30" style="edgeStyle=orthogonalEdgeStyle;rounded=0;orthogonalLoop=1;jettySize=auto;html=1;exitX=0;exitY=0.5;exitDx=0;exitDy=0;entryX=0;entryY=0.5;entryDx=0;entryDy=0;" edge="1" parent="1" source="8aSWK47TGKmx1DZMe7_y-27" target="8yiLwe5WrIj6T4rAeRKy-42">
          <mxGeometry relative="1" as="geometry" />
        </mxCell>
      </root>
    </mxGraphModel>
  </diagram>
</mxfile>
